<svg width="581" height="103" viewBox="0 0 581 103" fill="none" xmlns="http://www.w3.org/2000/svg">
<path d="M0 64.1182C0 42.6966 17.309 25.2365 38.3165 25.2365C47.1929 25.2365 55.3296 28.4644 61.839 33.8932V0H79V102.266L62.7266 94.49C56.2172 99.7721 47.9326 103 38.9082 103C17.6049 103 0 85.5399 0 64.1182ZM61.839 64.1182C61.839 51.0598 52.2229 41.3761 39.6479 41.3761C27.073 41.3761 17.4569 51.0598 17.4569 64.1182C17.4569 77.1766 27.073 86.8604 39.6479 86.8604C52.2229 86.8604 61.839 77.1766 61.839 64.1182Z" fill="black"/>
<path d="M89 64C89 42.5132 106.674 25 128.146 25C149.618 25 167 42.0717 167 63.7057V102.264L150.933 94.4642C144.506 99.7623 136.326 103 127.416 103C106.382 103 89 85.4868 89 64ZM150.056 64C150.056 50.9019 140.562 41.1887 128.146 41.1887C115.73 41.1887 106.236 50.9019 106.236 64C106.236 77.0981 115.73 86.8113 128.146 86.8113C140.562 86.8113 150.056 77.0981 150.056 64Z" fill="black"/>
<path d="M197.019 8V27.1905H218L210.371 43.1333H197.019V101H180V8H197.019Z" fill="black"/>
<path d="M214 64C214 42.5132 231.674 25 253.146 25C274.618 25 292 42.0717 292 63.7057V102.264L275.933 94.4642C269.506 99.7623 261.326 103 252.416 103C231.382 103 214 85.4868 214 64ZM275.056 64C275.056 50.9019 265.562 41.1887 253.146 41.1887C240.73 41.1887 231.236 50.9019 231.236 64C231.236 77.0981 240.73 86.8113 253.146 86.8113C265.562 86.8113 275.056 77.0981 275.056 64Z" fill="black"/>
<path d="M289 27H308.669L331.444 69.6485L354.218 27H373L331 103L289 27Z" fill="black"/>
<path d="M369 64C369 42.5132 386.674 25 408.146 25C429.618 25 447 42.0717 447 63.7057V102.264L430.933 94.4642C424.506 99.7623 416.326 103 407.416 103C386.382 103 369 85.4868 369 64ZM430.056 64C430.056 50.9019 420.562 41.1887 408.146 41.1887C395.73 41.1887 386.236 50.9019 386.236 64C386.236 77.0981 395.73 86.8113 408.146 86.8113C420.562 86.8113 430.056 77.0981 430.056 64Z" fill="black"/>
<path d="M513.053 101V60.7126C513.053 49.4971 505.019 41.233 494.5 41.233C483.981 41.233 475.947 49.4971 475.947 60.7126V101H459V60.7126C459 40.9379 474.778 25 494.5 25C514.222 25 530 40.9379 530 60.7126V101H513.053Z" fill="black"/>
<path d="M560.019 8V27.1905H581L573.371 43.1333H560.019V101H543V8H560.019Z" fill="black"/>
</svg>
